<svg width="15" height="15" viewBox="0 0 15 15" fill="none" xmlns="http://www.w3.org/2000/svg">
<circle cx="7.5" cy="7.5" r="7" fill="#FFFDFD" stroke="#C4C4C4"/>
<path d="M6.984 12V6.168H7.968V12H6.984ZM7.488 4.968C7.296 4.968 7.132 4.908 6.996 4.788C6.868 4.668 6.804 4.516 6.804 4.332C6.804 4.14 6.868 3.988 6.996 3.876C7.132 3.756 7.296 3.696 7.488 3.696C7.68 3.696 7.84 3.756 7.968 3.876C8.104 3.988 8.172 4.14 8.172 4.332C8.172 4.516 8.104 4.668 7.968 4.788C7.84 4.908 7.68 4.968 7.488 4.968Z" fill="#C4C4C4"/>
</svg>
