<svg width="180" height="180" viewBox="0 0 180 180" fill="none" xmlns="http://www.w3.org/2000/svg">
<path d="M175 65.5C175 91.7335 153.734 113 127.5 113C101.266 113 80 91.7335 80 65.5C80 39.2665 101.266 18 127.5 18C153.734 18 175 39.2665 175 65.5Z" fill="#FFC700"/>
<path d="M134.067 94.9334C129.467 71.9334 109.267 54.6667 85 54.6667C65.7333 54.6667 49 65.6001 40.6667 81.6001C20.6 83.7334 5 100.733 5 121.333C5 143.4 22.9333 161.333 45 161.333H131.667C150.067 161.333 165 146.4 165 128C165 110.4 151.333 96.1334 134.067 94.9334Z" fill="#C4C4C4"/>
</svg>
