<svg width="180" height="180" viewBox="0 0 180 180" fill="none" xmlns="http://www.w3.org/2000/svg">
<line x1="2.5" y1="-2.5" x2="27.5" y2="-2.5" transform="matrix(-0.523585 0.851974 -0.425746 -0.904843 68.6794 133)" stroke="#04D2FF" stroke-width="5" stroke-linecap="round"/>
<line x1="2.5" y1="-2.5" x2="27.5" y2="-2.5" transform="matrix(-0.523585 0.851974 -0.425746 -0.904843 83.71 133)" stroke="#04D2FF" stroke-width="5" stroke-linecap="round"/>
<line x1="2.5" y1="-2.5" x2="27.5" y2="-2.5" transform="matrix(-0.523585 0.851974 -0.425746 -0.904843 53.68 133)" stroke="#04D2FF" stroke-width="5" stroke-linecap="round"/>
<line x1="2.5" y1="-2.5" x2="27.5" y2="-2.5" transform="matrix(-0.523585 0.851974 -0.425746 -0.904843 113.707 133)" stroke="#04D2FF" stroke-width="5" stroke-linecap="round"/>
<line x1="2.5" y1="-2.5" x2="27.5" y2="-2.5" transform="matrix(-0.523585 0.851974 -0.425746 -0.904843 128.738 133)" stroke="#04D2FF" stroke-width="5" stroke-linecap="round"/>
<line x1="2.5" y1="-2.5" x2="27.5" y2="-2.5" transform="matrix(-0.523585 0.851974 -0.425746 -0.904843 98.7076 133)" stroke="#04D2FF" stroke-width="5" stroke-linecap="round"/>
<path d="M139.067 62.2667C134.467 39.2667 114.267 22 90 22C70.7333 22 54 32.9333 45.6667 48.9333C25.6 51.0667 10 68.0667 10 88.6667C10 110.733 27.9333 128.667 50 128.667H136.667C155.067 128.667 170 113.733 170 95.3333C170 77.7333 156.333 63.4667 139.067 62.2667Z" fill="#C4C4C4"/>
</svg>
