<svg id="icon-clock" xmlns="http://www.w3.org/2000/svg" viewBox="-1 -1 32 32" fill = "none">
	<circle cx="15" cy="15" r="14" stroke="white" stroke-width="3"/>
	<path d="M14.5 15L14.5 5" stroke="white" stroke-width="2"/>
	<path d="M14.377 14.8624L26.1231 19.1377" stroke="white" stroke-width="2"/>
</svg>

<svg id="icon-hourglass" xmlns="http://www.w3.org/2000/svg" viewBox="1 0 15 30" fill= "none">
	<path d="M1 1.20551H8.60274" stroke="white" stroke-width="2"/>
	<path d="M1 1V4.90411H2.0274C1.61644 7.0274 1.86301 11.6849 6.13699 13.3288" stroke="white" stroke-width="2"/>
	<path d="M16 1.20551H8.39726" stroke="white" stroke-width="2"/>
	<path d="M16 1V4.90411H14.9726C15.3836 7.0274 15.137 11.6849 10.863 13.3288" stroke="white" stroke-width="2"/>
	<path d="M1 25.452H8.60274" stroke="white" stroke-width="2"/>
	<path d="M1 25.6575V21.7534H2.0274C1.61644 19.6301 1.86301 14.9726 6.13699 13.3288" stroke="white" stroke-width="2"/>
	<path d="M16 25.452H8.39726" stroke="white" stroke-width="2"/>
	<path d="M16 25.6575V21.7534H14.9726C15.3836 19.6301 15.137 14.9726 10.863 13.3288" stroke="white" stroke-width="2"/>
</svg>


<svg id = "icon-weather-sunny" viewBox="0 0 180 180" fill="none" xmlns="http://www.w3.org/2000/svg">
<circle cx="90" cy="90" r="80" fill="#FFC700"/>
</svg>


<svg id = "icon-weather-cloudy" viewBox="0 0 180 180" fill="none" xmlns="http://www.w3.org/2000/svg">
<path d="M139.067 77.2667C134.467 54.2667 114.267 37 90 37C70.7333 37 54 47.9333 45.6667 63.9333C25.6 66.0667 10 83.0667 10 103.667C10 125.733 27.9333 143.667 50 143.667H136.667C155.067 143.667 170 128.733 170 110.333C170 92.7333 156.333 78.4667 139.067 77.2667Z" fill="#C4C4C4"/>
</svg>

<svg id = "icon-weather-partly-cloudy" viewBox="0 0 180 180" fill="none" xmlns="http://www.w3.org/2000/svg">
<path d="M175 65.5C175 91.7335 153.734 113 127.5 113C101.266 113 80 91.7335 80 65.5C80 39.2665 101.266 18 127.5 18C153.734 18 175 39.2665 175 65.5Z" fill="#FFC700"/>
<path d="M134.067 94.9334C129.467 71.9334 109.267 54.6667 85 54.6667C65.7333 54.6667 49 65.6001 40.6667 81.6001C20.6 83.7334 5 100.733 5 121.333C5 143.4 22.9333 161.333 45 161.333H131.667C150.067 161.333 165 146.4 165 128C165 110.4 151.333 96.1334 134.067 94.9334Z" fill="#C4C4C4"/>
</svg>


<svg id = "icon-weather-rainy" viewBox="0 0 180 180" fill="none" xmlns="http://www.w3.org/2000/svg">
<line x1="2.5" y1="-2.5" x2="27.5" y2="-2.5" transform="matrix(-0.523585 0.851974 -0.425746 -0.904843 68.6794 133)" stroke="#04D2FF" stroke-width="5" stroke-linecap="round"/>
<line x1="2.5" y1="-2.5" x2="27.5" y2="-2.5" transform="matrix(-0.523585 0.851974 -0.425746 -0.904843 83.71 133)" stroke="#04D2FF" stroke-width="5" stroke-linecap="round"/>
<line x1="2.5" y1="-2.5" x2="27.5" y2="-2.5" transform="matrix(-0.523585 0.851974 -0.425746 -0.904843 53.68 133)" stroke="#04D2FF" stroke-width="5" stroke-linecap="round"/>
<line x1="2.5" y1="-2.5" x2="27.5" y2="-2.5" transform="matrix(-0.523585 0.851974 -0.425746 -0.904843 113.707 133)" stroke="#04D2FF" stroke-width="5" stroke-linecap="round"/>
<line x1="2.5" y1="-2.5" x2="27.5" y2="-2.5" transform="matrix(-0.523585 0.851974 -0.425746 -0.904843 128.738 133)" stroke="#04D2FF" stroke-width="5" stroke-linecap="round"/>
<line x1="2.5" y1="-2.5" x2="27.5" y2="-2.5" transform="matrix(-0.523585 0.851974 -0.425746 -0.904843 98.7076 133)" stroke="#04D2FF" stroke-width="5" stroke-linecap="round"/>
<path d="M139.067 62.2667C134.467 39.2667 114.267 22 90 22C70.7333 22 54 32.9333 45.6667 48.9333C25.6 51.0667 10 68.0667 10 88.6667C10 110.733 27.9333 128.667 50 128.667H136.667C155.067 128.667 170 113.733 170 95.3333C170 77.7333 156.333 63.4667 139.067 62.2667Z" fill="#C4C4C4"/>
</svg>

<svg id = "icon-weather-none" viewBox="0 0 180 180" fill="none" xmlns="http://www.w3.org/2000/svg">
<line x1="24" y1="85" x2="74" y2="85" stroke="black" stroke-width="10"/>
<line x1="107" y1="85" x2="157" y2="85" stroke="black" stroke-width="10"/>
</svg>




<svg id="icon-settings" xmlns="http://www.w3.org/2000/svg" enable-background="new 0 0 24 24" viewBox="0 0 24 24">
	<g>
		<path d="M19.14,12.94c0.04-0.3,0.06-0.61,0.06-0.94c0-0.32-0.02-0.64-0.07-0.94l2.03-1.58c0.18-0.14,0.23-0.41,0.12-0.61 l-1.92-3.32c-0.12-0.22-0.37-0.29-0.59-0.22l-2.39,0.96c-0.5-0.38-1.03-0.7-1.62-0.94L14.4,2.81c-0.04-0.24-0.24-0.41-0.48-0.41 h-3.84c-0.24,0-0.43,0.17-0.47,0.41L9.25,5.35C8.66,5.59,8.12,5.92,7.63,6.29L5.24,5.33c-0.22-0.08-0.47,0-0.59,0.22L2.74,8.87 C2.62,9.08,2.66,9.34,2.86,9.48l2.03,1.58C4.84,11.36,4.8,11.69,4.8,12s0.02,0.64,0.07,0.94l-2.03,1.58 c-0.18,0.14-0.23,0.41-0.12,0.61l1.92,3.32c0.12,0.22,0.37,0.29,0.59,0.22l2.39-0.96c0.5,0.38,1.03,0.7,1.62,0.94l0.36,2.54 c0.05,0.24,0.24,0.41,0.48,0.41h3.84c0.24,0,0.44-0.17,0.47-0.41l0.36-2.54c0.59-0.24,1.13-0.56,1.62-0.94l2.39,0.96 c0.22,0.08,0.47,0,0.59-0.22l1.92-3.32c0.12-0.22,0.07-0.47-0.12-0.61L19.14,12.94z M12,15.6c-1.98,0-3.6-1.62-3.6-3.6 s1.62-3.6,3.6-3.6s3.6,1.62,3.6,3.6S13.98,15.6,12,15.6z"/>
	</g>
</svg>

<svg id="icon-back" xmlns="http://www.w3.org/2000/svg" viewBox="0 0 24 24">
	<path d="M20 11H7.83l5.59-5.59L12 4l-8 8 8 8 1.41-1.41L7.83 13H20v-2z"/>
</svg>

<svg id = "info" xmlns="http://www.w3.org/2000/svg" viewBox="0 0 15 15" fill="none" >
	<circle cx="7.5" cy="7.5" r="7" fill="#FFFDFD" stroke="#C4C4C4"/>
	<path d="M6.984 12V6.168H7.968V12H6.984ZM7.488 4.968C7.296 4.968 7.132 4.908 6.996 4.788C6.868 4.668 6.804 4.516 6.804 4.332C6.804 4.14 6.868 3.988 6.996 3.876C7.132 3.756 7.296 3.696 7.488 3.696C7.68 3.696 7.84 3.756 7.968 3.876C8.104 3.988 8.172 4.14 8.172 4.332C8.172 4.516 8.104 4.668 7.968 4.788C7.84 4.908 7.68 4.968 7.488 4.968Z" fill="#C4C4C4"/>
</svg>
