<svg id="icon-clock" xmlns="http://www.w3.org/2000/svg" viewBox="0 0 24 24">
	<path d="M11.99 2C6.47 2 2 6.48 2 12s4.47 10 9.99 10C17.52 22 22 17.52 22 12S17.52 2 11.99 2zM12 20c-4.42 0-8-3.58-8-8s3.58-8 8-8 8 3.58 8 8-3.58 8-8 8zm-.22-13h-.06c-.4 0-.72.32-.72.72v4.72c0 .35.18.68.49.86l4.15 2.49c.34.2.78.1.98-.24.21-.34.1-.79-.25-.99l-3.87-2.3V7.72c0-.4-.32-.72-.72-.72z"/>
</svg>

<svg id="icon-hourglass" xmlns="http://www.w3.org/2000/svg" viewBox="0 0 24 24">
	<path d="M8 2c-1.1 0-2 .9-2 2v3.17c0 .53.21 1.04.59 1.42L10 12l-3.42 3.42c-.37.38-.58.89-.58 1.42V20c0 1.1.9 2 2 2h8c1.1 0 2-.9 2-2v-3.16c0-.53-.21-1.04-.58-1.41L14 12l3.41-3.4c.38-.38.59-.89.59-1.42V4c0-1.1-.9-2-2-2H8zm8 14.5V19c0 .55-.45 1-1 1H9c-.55 0-1-.45-1-1v-2.5l4-4 4 4zm-4-5l-4-4V5c0-.55.45-1 1-1h6c.55 0 1 .45 1 1v2.5l-4 4z"/>
</svg>


<svg id="icon-weather-sunny" xmlns="http://www.w3.org/2000/svg" viewBox="0 0 24 24">
	<path d="M6.76 4.84l-1.8-1.79-1.41 1.41 1.79 1.79 1.42-1.41zM4 10.5H1v2h3v-2zm9-9.95h-2V3.5h2V.55zm7.45 3.91l-1.41-1.41-1.79 1.79 1.41 1.41 1.79-1.79zm-3.21 13.7l1.79 1.8 1.41-1.41-1.8-1.79-1.4 1.4zM20 10.5v2h3v-2h-3zm-8-5c-3.31 0-6 2.69-6 6s2.69 6 6 6 6-2.69 6-6-2.69-6-6-6zm-1 16.95h2V19.5h-2v2.95zm-7.45-3.91l1.41 1.41 1.79-1.8-1.41-1.41-1.79 1.8z"/>
</svg>

<svg id="icon-weather-cloudy" xmlns="http://www.w3.org/2000/svg" viewBox="0 0 24 24">
	<path d="M19.36 10.04C18.67 6.59 15.64 4 12 4 9.11 4 6.6 5.64 5.35 8.04 2.34 8.36 0 10.91 0 14c0 3.31 2.69 6 6 6h13c2.76 0 5-2.24 5-5 0-2.64-2.05-4.78-4.64-4.96z"/>
</svg>

<svg id="icon-settings" xmlns="http://www.w3.org/2000/svg" enable-background="new 0 0 24 24" viewBox="0 0 24 24">
	<g>
		<path d="M19.14,12.94c0.04-0.3,0.06-0.61,0.06-0.94c0-0.32-0.02-0.64-0.07-0.94l2.03-1.58c0.18-0.14,0.23-0.41,0.12-0.61 l-1.92-3.32c-0.12-0.22-0.37-0.29-0.59-0.22l-2.39,0.96c-0.5-0.38-1.03-0.7-1.62-0.94L14.4,2.81c-0.04-0.24-0.24-0.41-0.48-0.41 h-3.84c-0.24,0-0.43,0.17-0.47,0.41L9.25,5.35C8.66,5.59,8.12,5.92,7.63,6.29L5.24,5.33c-0.22-0.08-0.47,0-0.59,0.22L2.74,8.87 C2.62,9.08,2.66,9.34,2.86,9.48l2.03,1.58C4.84,11.36,4.8,11.69,4.8,12s0.02,0.64,0.07,0.94l-2.03,1.58 c-0.18,0.14-0.23,0.41-0.12,0.61l1.92,3.32c0.12,0.22,0.37,0.29,0.59,0.22l2.39-0.96c0.5,0.38,1.03,0.7,1.62,0.94l0.36,2.54 c0.05,0.24,0.24,0.41,0.48,0.41h3.84c0.24,0,0.44-0.17,0.47-0.41l0.36-2.54c0.59-0.24,1.13-0.56,1.62-0.94l2.39,0.96 c0.22,0.08,0.47,0,0.59-0.22l1.92-3.32c0.12-0.22,0.07-0.47-0.12-0.61L19.14,12.94z M12,15.6c-1.98,0-3.6-1.62-3.6-3.6 s1.62-3.6,3.6-3.6s3.6,1.62,3.6,3.6S13.98,15.6,12,15.6z"/>
	</g>
</svg>
